<svg width="144" height="144" viewBox="0 0 144 144" fill="none" xmlns="http://www.w3.org/2000/svg">
<g clip-path="url(#clip0_1070_12)">
<rect x="14.3047" width="115.027" height="144" rx="20" fill="url(#paint0_linear_1070_12)"/>
<g filter="url(#filter0_f_1070_12)">
<circle cx="72.5" cy="83.5" r="8.5" fill="#481B12"/>
</g>
<g filter="url(#filter1_f_1070_12)">
<circle cx="72.5" cy="127.5" r="8.5" fill="#481B12"/>
</g>
<g filter="url(#filter2_f_1070_12)">
<circle cx="72.5" cy="17.5" r="8.5" fill="#481B12"/>
</g>
<path d="M129.332 106.576V106.576C137.433 106.576 144 100.009 144 91.9084V52.9052C144 44.8044 137.433 38.2373 129.332 38.2373V38.2373H14.3046V38.2373C6.4044 38.2373 0 44.6417 0 52.5419V92.1952C0 100.108 6.39209 106.534 14.3046 106.576V106.576V61C14.3046 56.5817 17.8864 53 22.3046 53H121.332C125.75 53 129.332 56.5817 129.332 61V106.576Z" fill="url(#paint1_linear_1070_12)"/>
<g filter="url(#filter3_d_1070_12)">
<rect x="65" y="45" width="15" height="43" rx="3" fill="url(#paint2_linear_1070_12)"/>
</g>
</g>
<defs>
<filter id="filter0_f_1070_12" x="63" y="74" width="19" height="19" filterUnits="userSpaceOnUse" color-interpolation-filters="sRGB">
<feFlood flood-opacity="0" result="BackgroundImageFix"/>
<feBlend mode="normal" in="SourceGraphic" in2="BackgroundImageFix" result="shape"/>
<feGaussianBlur stdDeviation="0.5" result="effect1_foregroundBlur_1070_12"/>
</filter>
<filter id="filter1_f_1070_12" x="63" y="118" width="19" height="19" filterUnits="userSpaceOnUse" color-interpolation-filters="sRGB">
<feFlood flood-opacity="0" result="BackgroundImageFix"/>
<feBlend mode="normal" in="SourceGraphic" in2="BackgroundImageFix" result="shape"/>
<feGaussianBlur stdDeviation="0.5" result="effect1_foregroundBlur_1070_12"/>
</filter>
<filter id="filter2_f_1070_12" x="63" y="8" width="19" height="19" filterUnits="userSpaceOnUse" color-interpolation-filters="sRGB">
<feFlood flood-opacity="0" result="BackgroundImageFix"/>
<feBlend mode="normal" in="SourceGraphic" in2="BackgroundImageFix" result="shape"/>
<feGaussianBlur stdDeviation="0.5" result="effect1_foregroundBlur_1070_12"/>
</filter>
<filter id="filter3_d_1070_12" x="63" y="41" width="19" height="47" filterUnits="userSpaceOnUse" color-interpolation-filters="sRGB">
<feFlood flood-opacity="0" result="BackgroundImageFix"/>
<feColorMatrix in="SourceAlpha" type="matrix" values="0 0 0 0 0 0 0 0 0 0 0 0 0 0 0 0 0 0 127 0" result="hardAlpha"/>
<feOffset dy="-2"/>
<feGaussianBlur stdDeviation="1"/>
<feComposite in2="hardAlpha" operator="out"/>
<feColorMatrix type="matrix" values="0 0 0 0 0.866667 0 0 0 0 0.533333 0 0 0 0 0 0 0 0 0.7 0"/>
<feBlend mode="normal" in2="BackgroundImageFix" result="effect1_dropShadow_1070_12"/>
<feBlend mode="normal" in="SourceGraphic" in2="effect1_dropShadow_1070_12" result="shape"/>
</filter>
<linearGradient id="paint0_linear_1070_12" x1="71.8184" y1="0" x2="71.8184" y2="144" gradientUnits="userSpaceOnUse">
<stop stop-color="#72392E"/>
<stop offset="0.59" stop-color="#C26957"/>
<stop offset="1" stop-color="#72392E"/>
</linearGradient>
<linearGradient id="paint1_linear_1070_12" x1="72" y1="38.2373" x2="72" y2="106.576" gradientUnits="userSpaceOnUse">
<stop stop-color="#FFCF82"/>
<stop offset="1" stop-color="#DD8800"/>
</linearGradient>
<linearGradient id="paint2_linear_1070_12" x1="72.5" y1="45" x2="72.5" y2="88" gradientUnits="userSpaceOnUse">
<stop stop-color="#FFCF82"/>
<stop offset="1" stop-color="#DD8800"/>
</linearGradient>
<clipPath id="clip0_1070_12">
<rect width="144" height="144" fill="white"/>
</clipPath>
</defs>
</svg>
